<svg id="Capa_1" enable-background="new 0 0 512 512" height="512" viewBox="0 0 512 512" width="512" xmlns="http://www.w3.org/2000/svg"><g><g><g><path d="m161.872 411.959h106.688v51.27h-106.688z" fill="#9c9c9c"/></g><g><path d="m161.872 411.959h30.905v51.27h-30.905z" fill="#838383"/></g><g><path d="m0 354.306v50.172c0 4.684 3.797 8.481 8.481 8.481h413.47c4.684 0 8.481-3.797 8.481-8.481v-50.172c-140.879-6.663-281.991-6.778-422.88-.345z" fill="#acacac"/></g><path d="m41.207 404.478v-50.172h-41.207v50.172c0 4.684 3.797 8.481 8.481 8.481h41.207c-4.684 0-8.481-3.797-8.481-8.481z" fill="#9c9c9c"/><path d="m239.069 234.385c-5.43 0-9.847-4.418-9.847-9.848v-108.742h-218.875c-5.714 0-10.347 4.633-10.347 10.347v228.164h430.432v-119.921z" fill="#c4e2ff"/><path d="m228.222 224.537c0 5.991 4.857 10.847 10.847 10.847h262.084c5.991 0 10.847-4.857 10.847-10.847v-151.982l-2.211-.155c-93.743-6.555-187.832-6.504-281.568.155v151.982z" fill="#fedba6"/><g><path d="m51.554 115.795h-41.207c-5.715 0-10.347 4.633-10.347 10.347v228.164h41.207v-228.164c0-5.714 4.633-10.347 10.347-10.347z" fill="#8ac9fe"/></g><g><path d="m84.479 467.307v22.153c0 2.805 2.274 5.079 5.079 5.079h251.316c2.805 0 5.079-2.274 5.079-5.079v-22.153c0-2.805-2.274-5.079-5.079-5.079h-251.316c-2.805 0-5.079 2.274-5.079 5.079z" fill="#acacac"/></g><g><path d="m125.686 489.46v-22.152c0-2.805 2.274-5.079 5.079-5.079h-41.207c-2.805 0-5.079 2.274-5.079 5.079v22.152c0 2.805 2.274 5.079 5.079 5.079h41.207c-2.805 0-5.079-2.274-5.079-5.079z" fill="#9c9c9c"/></g></g><path d="m269.429 224.537v-151.982h-41.207v151.982c0 5.991 4.857 10.847 10.847 10.847h41.207c-5.991 0-10.847-4.856-10.847-10.847z" fill="#fece85"/><g><path d="m512 72.555h-283.778v-43.85c0-6.21 5.034-11.244 11.244-11.244h261.291c6.21 0 11.244 5.034 11.244 11.244v43.85z" fill="#fe646f"/></g><g><path d="m280.672 17.461h-41.207c-6.21 0-11.244 5.034-11.244 11.244v43.85h41.207v-43.85c.001-6.21 5.035-11.244 11.244-11.244z" fill="#fd4755"/></g><g><g><circle cx="263.297" cy="44.655" fill="#fff" r="7.5"/></g><g><circle cx="287.297" cy="44.655" fill="#fed402" r="7.5"/></g><g><circle cx="311.297" cy="44.655" fill="#00f2a6" r="7.5"/></g></g><g><path d="m481.424 52.155h-24.993c-4.143 0-7.5-3.357-7.5-7.5s3.357-7.5 7.5-7.5h24.993c4.143 0 7.5 3.357 7.5 7.5s-3.358 7.5-7.5 7.5z" fill="#fff"/></g><g><g><path d="m330.739 188.856c-1.272 0-2.563-.324-3.743-1.006l-50.947-29.415c-2.32-1.34-3.75-3.815-3.75-6.495s1.43-5.155 3.75-6.495l50.947-29.415c3.585-2.07 8.174-.843 10.245 2.745 2.071 3.587.842 8.174-2.745 10.245l-39.697 22.92 39.697 22.92c3.587 2.071 4.816 6.658 2.745 10.245-1.388 2.407-3.91 3.751-6.502 3.751z" fill="#0593fc"/></g><g><path d="m409.482 188.856c-2.592 0-5.112-1.345-6.502-3.751-2.071-3.587-.842-8.174 2.745-10.245l39.697-22.92-39.697-22.92c-3.587-2.071-4.816-6.658-2.745-10.245 2.07-3.588 6.658-4.816 10.245-2.745l50.947 29.415c2.32 1.34 3.75 3.815 3.75 6.495s-1.43 5.155-3.75 6.495l-50.947 29.415c-1.18.682-2.47 1.006-3.743 1.006z" fill="#0593fc"/></g></g><g><path d="m357.883 199.952c-.718 0-1.448-.104-2.171-.322-3.965-1.197-6.209-5.382-5.012-9.348l24.462-81.02c1.196-3.966 5.382-6.213 9.348-5.012 3.965 1.197 6.209 5.382 5.012 9.348l-24.462 81.02c-.979 3.242-3.956 5.334-7.177 5.334z" fill="#60b7ff"/></g><g><path d="m126.852 166.428h-78.706c-4.142 0-7.5-3.357-7.5-7.5s3.358-7.5 7.5-7.5h78.706c4.142 0 7.5 3.357 7.5 7.5s-3.358 7.5-7.5 7.5z" fill="#26a6fe"/></g><g><path d="m194.314 204.656h-146.168c-4.142 0-7.5-3.357-7.5-7.5s3.358-7.5 7.5-7.5h146.168c4.142 0 7.5 3.357 7.5 7.5s-3.357 7.5-7.5 7.5z" fill="#0182fc"/></g><g><path d="m194.314 242.885h-146.168c-4.142 0-7.5-3.357-7.5-7.5s3.358-7.5 7.5-7.5h146.168c4.142 0 7.5 3.357 7.5 7.5s-3.357 7.5-7.5 7.5z" fill="#0182fc"/></g><g><path d="m374.214 281.113h-232.564c-4.142 0-7.5-3.357-7.5-7.5s3.358-7.5 7.5-7.5h232.564c4.143 0 7.5 3.357 7.5 7.5s-3.358 7.5-7.5 7.5z" fill="#26a6fe"/></g><g><path d="m374.214 319.342h-232.564c-4.142 0-7.5-3.357-7.5-7.5s3.358-7.5 7.5-7.5h232.564c4.143 0 7.5 3.357 7.5 7.5s-3.358 7.5-7.5 7.5z" fill="#26a6fe"/></g><g><g><path d="m67.041 319.342c-1.935 0-3.867-.743-5.334-2.228l-18.895-19.114c-2.888-2.922-2.888-7.623 0-10.545l18.894-19.114c2.911-2.946 7.66-2.976 10.606-.062 2.946 2.912 2.974 7.66.062 10.606l-13.682 13.842 13.682 13.842c2.912 2.946 2.884 7.694-.062 10.606-1.46 1.445-3.367 2.167-5.271 2.167z" fill="#0182fc"/></g><g><path d="m96.237 319.342c-1.905 0-3.81-.721-5.272-2.166-2.946-2.912-2.974-7.66-.062-10.606l13.682-13.842-13.682-13.842c-2.912-2.946-2.884-7.694.062-10.606 2.946-2.911 7.695-2.884 10.606.062l18.894 19.114c2.888 2.922 2.888 7.623 0 10.545l-18.894 19.114c-1.466 1.484-3.4 2.227-5.334 2.227z" fill="#0182fc"/></g></g></g></svg>